<mxfile host="app.diagrams.net" agent="Mozilla/5.0 (Windows NT 10.0; Win64; x64) AppleWebKit/537.36 (KHTML, like Gecko) Chrome/132.0.0.0 YaBrowser/25.2.0.0 Safari/537.36" version="26.2.13">
  <diagram name="Страница — 1" id="DHmsqYFSPs-z0FR3xjsO">
    <mxGraphModel dx="789" dy="447" grid="1" gridSize="10" guides="1" tooltips="1" connect="1" arrows="1" fold="1" page="1" pageScale="1" pageWidth="827" pageHeight="1169" math="0" shadow="0">
      <root>
        <mxCell id="0" />
        <mxCell id="1" parent="0" />
        <mxCell id="jvZ_k0uxViTaNlR4fZ5x-1" value="" style="rounded=0;whiteSpace=wrap;html=1;" parent="1" vertex="1">
          <mxGeometry x="310" y="90" width="120" height="60" as="geometry" />
        </mxCell>
        <mxCell id="jvZ_k0uxViTaNlR4fZ5x-2" value="Начало" style="rounded=1;whiteSpace=wrap;html=1;fontFamily=Times New Roman;fontSize=14;perimeterSpacing=0;arcSize=50;" parent="1" vertex="1">
          <mxGeometry x="310" y="40" width="120" height="30" as="geometry" />
        </mxCell>
        <mxCell id="Hm_14ipZ2-SEs32HnnS6-1" value="" style="rounded=0;whiteSpace=wrap;html=1;" vertex="1" parent="1">
          <mxGeometry x="310" y="170" width="120" height="60" as="geometry" />
        </mxCell>
        <mxCell id="Hm_14ipZ2-SEs32HnnS6-2" value="Начало" style="rounded=1;whiteSpace=wrap;html=1;fontFamily=Times New Roman;fontSize=14;perimeterSpacing=0;arcSize=50;" vertex="1" parent="1">
          <mxGeometry x="310" y="250" width="120" height="30" as="geometry" />
        </mxCell>
      </root>
    </mxGraphModel>
  </diagram>
</mxfile>
